STARTFONT 2.1
COMMENT This font is build from MS Windows font sq01.fnt by fnt2bdf converter.
COMMENT Optimal XxY resolution is 96x96 dpi.
FONT sq01
SIZE 12 96 96
FONTBOUNDINGBOX 8 15 0 -3
STARTPROPERTIES 6
DEFAULT_CHAR 32
FONT_ASCENT 12
FONT_DESCENT 3
SPACING "C"
COPYRIGHT "Copyright (C) 1990, 1991 EWT Consulting"
NOTICE "Public domain font, build by Serge Vakulenko, <vak@kiae.su>"
ENDPROPERTIES
CHARS 224
STARTCHAR space
ENCODING 32
SWIDTH 533 0
DWIDTH 8 0
BBX 8 15 0 -3
BITMAP
00
00
00
00
00
00
00
00
00
00
00
00
00
00
00
ENDCHAR
STARTCHAR exclam
ENCODING 33
SWIDTH 533 0
DWIDTH 8 0
BBX 8 15 0 -3
BITMAP
00
00
00
18
3c
3c
3c
18
18
00
18
18
00
00
00
ENDCHAR
STARTCHAR quotedbl
ENCODING 34
SWIDTH 533 0
DWIDTH 8 0
BBX 8 15 0 -3
BITMAP
00
00
00
66
66
66
00
00
00
00
00
00
00
00
00
ENDCHAR
STARTCHAR numbersign
ENCODING 35
SWIDTH 533 0
DWIDTH 8 0
BBX 8 15 0 -3
BITMAP
00
00
00
36
36
7f
36
36
36
7f
36
36
00
00
00
ENDCHAR
STARTCHAR dollar
ENCODING 36
SWIDTH 533 0
DWIDTH 8 0
BBX 8 15 0 -3
BITMAP
00
18
18
3c
66
60
30
18
0c
06
66
3c
18
18
00
ENDCHAR
STARTCHAR percent
ENCODING 37
SWIDTH 533 0
DWIDTH 8 0
BBX 8 15 0 -3
BITMAP
00
00
70
d8
da
76
0c
18
30
6e
5b
1b
0e
00
00
ENDCHAR
STARTCHAR ampersand
ENCODING 38
SWIDTH 533 0
DWIDTH 8 0
BBX 8 15 0 -3
BITMAP
00
00
00
38
6c
6c
38
60
6f
66
66
3b
00
00
00
ENDCHAR
STARTCHAR quoteright
ENCODING 39
SWIDTH 533 0
DWIDTH 8 0
BBX 8 15 0 -3
BITMAP
00
00
00
18
18
18
00
00
00
00
00
00
00
00
00
ENDCHAR
STARTCHAR parenleft
ENCODING 40
SWIDTH 533 0
DWIDTH 8 0
BBX 8 15 0 -3
BITMAP
00
00
00
0c
18
18
30
30
30
30
30
18
18
0c
00
ENDCHAR
STARTCHAR parenright
ENCODING 41
SWIDTH 533 0
DWIDTH 8 0
BBX 8 15 0 -3
BITMAP
00
00
00
30
18
18
0c
0c
0c
0c
0c
18
18
30
00
ENDCHAR
STARTCHAR asterisk
ENCODING 42
SWIDTH 533 0
DWIDTH 8 0
BBX 8 15 0 -3
BITMAP
00
00
00
00
00
36
1c
7f
1c
36
00
00
00
00
00
ENDCHAR
STARTCHAR plus
ENCODING 43
SWIDTH 533 0
DWIDTH 8 0
BBX 8 15 0 -3
BITMAP
00
00
00
00
00
18
18
7e
18
18
00
00
00
00
00
ENDCHAR
STARTCHAR comma
ENCODING 44
SWIDTH 533 0
DWIDTH 8 0
BBX 8 15 0 -3
BITMAP
00
00
00
00
00
00
00
00
00
00
1c
1c
0c
18
00
ENDCHAR
STARTCHAR minus
ENCODING 45
SWIDTH 533 0
DWIDTH 8 0
BBX 8 15 0 -3
BITMAP
00
00
00
00
00
00
00
7e
00
00
00
00
00
00
00
ENDCHAR
STARTCHAR period
ENCODING 46
SWIDTH 533 0
DWIDTH 8 0
BBX 8 15 0 -3
BITMAP
00
00
00
00
00
00
00
00
00
00
1c
1c
00
00
00
ENDCHAR
STARTCHAR slash
ENCODING 47
SWIDTH 533 0
DWIDTH 8 0
BBX 8 15 0 -3
BITMAP
00
00
00
06
06
0c
0c
18
18
30
30
60
60
00
00
ENDCHAR
STARTCHAR zero
ENCODING 48
SWIDTH 533 0
DWIDTH 8 0
BBX 8 15 0 -3
BITMAP
00
00
00
1e
33
37
37
33
3b
3b
33
1e
00
00
00
ENDCHAR
STARTCHAR one
ENCODING 49
SWIDTH 533 0
DWIDTH 8 0
BBX 8 15 0 -3
BITMAP
00
00
00
0c
1c
7c
0c
0c
0c
0c
0c
0c
00
00
00
ENDCHAR
STARTCHAR two
ENCODING 50
SWIDTH 533 0
DWIDTH 8 0
BBX 8 15 0 -3
BITMAP
00
00
00
3c
66
66
06
0c
18
30
60
7e
00
00
00
ENDCHAR
STARTCHAR three
ENCODING 51
SWIDTH 533 0
DWIDTH 8 0
BBX 8 15 0 -3
BITMAP
00
00
00
3c
66
66
06
1c
06
66
66
3c
00
00
00
ENDCHAR
STARTCHAR four
ENCODING 52
SWIDTH 533 0
DWIDTH 8 0
BBX 8 15 0 -3
BITMAP
00
00
00
30
30
36
36
36
66
7f
06
06
00
00
00
ENDCHAR
STARTCHAR five
ENCODING 53
SWIDTH 533 0
DWIDTH 8 0
BBX 8 15 0 -3
BITMAP
00
00
00
7e
60
60
60
7c
06
06
0c
78
00
00
00
ENDCHAR
STARTCHAR six
ENCODING 54
SWIDTH 533 0
DWIDTH 8 0
BBX 8 15 0 -3
BITMAP
00
00
00
1c
18
30
7c
66
66
66
66
3c
00
00
00
ENDCHAR
STARTCHAR seven
ENCODING 55
SWIDTH 533 0
DWIDTH 8 0
BBX 8 15 0 -3
BITMAP
00
00
00
7e
06
0c
0c
18
18
30
30
30
00
00
00
ENDCHAR
STARTCHAR eight
ENCODING 56
SWIDTH 533 0
DWIDTH 8 0
BBX 8 15 0 -3
BITMAP
00
00
00
3c
66
66
76
3c
6e
66
66
3c
00
00
00
ENDCHAR
STARTCHAR nine
ENCODING 57
SWIDTH 533 0
DWIDTH 8 0
BBX 8 15 0 -3
BITMAP
00
00
00
3c
66
66
66
66
3e
0c
18
38
00
00
00
ENDCHAR
STARTCHAR colon
ENCODING 58
SWIDTH 533 0
DWIDTH 8 0
BBX 8 15 0 -3
BITMAP
00
00
00
00
00
1c
1c
00
00
00
1c
1c
00
00
00
ENDCHAR
STARTCHAR semicolon
ENCODING 59
SWIDTH 533 0
DWIDTH 8 0
BBX 8 15 0 -3
BITMAP
00
00
00
00
00
1c
1c
00
00
00
1c
1c
0c
18
00
ENDCHAR
STARTCHAR less
ENCODING 60
SWIDTH 533 0
DWIDTH 8 0
BBX 8 15 0 -3
BITMAP
00
00
00
06
0c
18
30
60
30
18
0c
06
00
00
00
ENDCHAR
STARTCHAR equal
ENCODING 61
SWIDTH 533 0
DWIDTH 8 0
BBX 8 15 0 -3
BITMAP
00
00
00
00
00
00
7e
00
7e
00
00
00
00
00
00
ENDCHAR
STARTCHAR greater
ENCODING 62
SWIDTH 533 0
DWIDTH 8 0
BBX 8 15 0 -3
BITMAP
00
00
00
60
30
18
0c
06
0c
18
30
60
00
00
00
ENDCHAR
STARTCHAR question
ENCODING 63
SWIDTH 533 0
DWIDTH 8 0
BBX 8 15 0 -3
BITMAP
00
00
00
3c
66
66
0c
18
18
00
18
18
00
00
00
ENDCHAR
STARTCHAR at
ENCODING 64
SWIDTH 533 0
DWIDTH 8 0
BBX 8 15 0 -3
BITMAP
00
00
00
7e
c3
c3
cf
db
db
cf
c0
7f
00
00
00
ENDCHAR
STARTCHAR A
ENCODING 65
SWIDTH 533 0
DWIDTH 8 0
BBX 8 15 0 -3
BITMAP
00
00
00
18
3c
66
66
66
7e
66
66
66
00
00
00
ENDCHAR
STARTCHAR B
ENCODING 66
SWIDTH 533 0
DWIDTH 8 0
BBX 8 15 0 -3
BITMAP
00
00
00
7c
66
66
66
7c
66
66
66
7c
00
00
00
ENDCHAR
STARTCHAR C
ENCODING 67
SWIDTH 533 0
DWIDTH 8 0
BBX 8 15 0 -3
BITMAP
00
00
00
3c
66
66
60
60
60
66
66
3c
00
00
00
ENDCHAR
STARTCHAR D
ENCODING 68
SWIDTH 533 0
DWIDTH 8 0
BBX 8 15 0 -3
BITMAP
00
00
00
78
6c
66
66
66
66
66
6c
78
00
00
00
ENDCHAR
STARTCHAR E
ENCODING 69
SWIDTH 533 0
DWIDTH 8 0
BBX 8 15 0 -3
BITMAP
00
00
00
7e
60
60
60
7c
60
60
60
7e
00
00
00
ENDCHAR
STARTCHAR F
ENCODING 70
SWIDTH 533 0
DWIDTH 8 0
BBX 8 15 0 -3
BITMAP
00
00
00
7e
60
60
60
7c
60
60
60
60
00
00
00
ENDCHAR
STARTCHAR G
ENCODING 71
SWIDTH 533 0
DWIDTH 8 0
BBX 8 15 0 -3
BITMAP
00
00
00
3c
66
66
60
60
6e
66
66
3e
00
00
00
ENDCHAR
STARTCHAR H
ENCODING 72
SWIDTH 533 0
DWIDTH 8 0
BBX 8 15 0 -3
BITMAP
00
00
00
66
66
66
66
7e
66
66
66
66
00
00
00
ENDCHAR
STARTCHAR I
ENCODING 73
SWIDTH 533 0
DWIDTH 8 0
BBX 8 15 0 -3
BITMAP
00
00
00
3c
18
18
18
18
18
18
18
3c
00
00
00
ENDCHAR
STARTCHAR J
ENCODING 74
SWIDTH 533 0
DWIDTH 8 0
BBX 8 15 0 -3
BITMAP
00
00
00
06
06
06
06
06
06
66
66
3c
00
00
00
ENDCHAR
STARTCHAR K
ENCODING 75
SWIDTH 533 0
DWIDTH 8 0
BBX 8 15 0 -3
BITMAP
00
00
00
66
66
6c
6c
78
6c
6c
66
66
00
00
00
ENDCHAR
STARTCHAR L
ENCODING 76
SWIDTH 533 0
DWIDTH 8 0
BBX 8 15 0 -3
BITMAP
00
00
00
60
60
60
60
60
60
60
60
7e
00
00
00
ENDCHAR
STARTCHAR M
ENCODING 77
SWIDTH 533 0
DWIDTH 8 0
BBX 8 15 0 -3
BITMAP
00
00
00
63
63
77
6b
6b
6b
63
63
63
00
00
00
ENDCHAR
STARTCHAR N
ENCODING 78
SWIDTH 533 0
DWIDTH 8 0
BBX 8 15 0 -3
BITMAP
00
00
00
63
63
73
7b
6f
67
63
63
63
00
00
00
ENDCHAR
STARTCHAR O
ENCODING 79
SWIDTH 533 0
DWIDTH 8 0
BBX 8 15 0 -3
BITMAP
00
00
00
3c
66
66
66
66
66
66
66
3c
00
00
00
ENDCHAR
STARTCHAR P
ENCODING 80
SWIDTH 533 0
DWIDTH 8 0
BBX 8 15 0 -3
BITMAP
00
00
00
7c
66
66
66
7c
60
60
60
60
00
00
00
ENDCHAR
STARTCHAR Q
ENCODING 81
SWIDTH 533 0
DWIDTH 8 0
BBX 8 15 0 -3
BITMAP
00
00
00
3c
66
66
66
66
66
66
66
3c
0c
06
00
ENDCHAR
STARTCHAR R
ENCODING 82
SWIDTH 533 0
DWIDTH 8 0
BBX 8 15 0 -3
BITMAP
00
00
00
7c
66
66
66
7c
6c
66
66
66
00
00
00
ENDCHAR
STARTCHAR S
ENCODING 83
SWIDTH 533 0
DWIDTH 8 0
BBX 8 15 0 -3
BITMAP
00
00
00
3c
66
60
30
18
0c
06
66
3c
00
00
00
ENDCHAR
STARTCHAR T
ENCODING 84
SWIDTH 533 0
DWIDTH 8 0
BBX 8 15 0 -3
BITMAP
00
00
00
7e
18
18
18
18
18
18
18
18
00
00
00
ENDCHAR
STARTCHAR U
ENCODING 85
SWIDTH 533 0
DWIDTH 8 0
BBX 8 15 0 -3
BITMAP
00
00
00
66
66
66
66
66
66
66
66
3c
00
00
00
ENDCHAR
STARTCHAR V
ENCODING 86
SWIDTH 533 0
DWIDTH 8 0
BBX 8 15 0 -3
BITMAP
00
00
00
66
66
66
66
66
66
66
3c
18
00
00
00
ENDCHAR
STARTCHAR W
ENCODING 87
SWIDTH 533 0
DWIDTH 8 0
BBX 8 15 0 -3
BITMAP
00
00
00
63
63
63
6b
6b
6b
36
36
36
00
00
00
ENDCHAR
STARTCHAR X
ENCODING 88
SWIDTH 533 0
DWIDTH 8 0
BBX 8 15 0 -3
BITMAP
00
00
00
66
66
34
18
18
2c
66
66
66
00
00
00
ENDCHAR
STARTCHAR Y
ENCODING 89
SWIDTH 533 0
DWIDTH 8 0
BBX 8 15 0 -3
BITMAP
00
00
00
66
66
66
66
3c
18
18
18
18
00
00
00
ENDCHAR
STARTCHAR Z
ENCODING 90
SWIDTH 533 0
DWIDTH 8 0
BBX 8 15 0 -3
BITMAP
00
00
00
7e
06
06
0c
18
30
60
60
7e
00
00
00
ENDCHAR
STARTCHAR bracketleft
ENCODING 91
SWIDTH 533 0
DWIDTH 8 0
BBX 8 15 0 -3
BITMAP
00
00
00
3c
30
30
30
30
30
30
30
30
30
30
3c
ENDCHAR
STARTCHAR backslash
ENCODING 92
SWIDTH 533 0
DWIDTH 8 0
BBX 8 15 0 -3
BITMAP
00
00
00
60
60
30
30
18
18
0c
0c
06
06
00
00
ENDCHAR
STARTCHAR bracketright
ENCODING 93
SWIDTH 533 0
DWIDTH 8 0
BBX 8 15 0 -3
BITMAP
00
00
00
3c
0c
0c
0c
0c
0c
0c
0c
0c
0c
0c
3c
ENDCHAR
STARTCHAR asciicircum
ENCODING 94
SWIDTH 533 0
DWIDTH 8 0
BBX 8 15 0 -3
BITMAP
00
18
3c
66
00
00
00
00
00
00
00
00
00
00
00
ENDCHAR
STARTCHAR underscore
ENCODING 95
SWIDTH 533 0
DWIDTH 8 0
BBX 8 15 0 -3
BITMAP
00
00
00
00
00
00
00
00
00
00
00
00
00
00
ff
ENDCHAR
STARTCHAR quoteleft
ENCODING 96
SWIDTH 533 0
DWIDTH 8 0
BBX 8 15 0 -3
BITMAP
00
38
18
0c
00
00
00
00
00
00
00
00
00
00
00
ENDCHAR
STARTCHAR a
ENCODING 97
SWIDTH 533 0
DWIDTH 8 0
BBX 8 15 0 -3
BITMAP
00
00
00
00
00
3c
06
06
3e
66
66
3e
00
00
00
ENDCHAR
STARTCHAR b
ENCODING 98
SWIDTH 533 0
DWIDTH 8 0
BBX 8 15 0 -3
BITMAP
00
00
00
60
60
7c
66
66
66
66
66
7c
00
00
00
ENDCHAR
STARTCHAR c
ENCODING 99
SWIDTH 533 0
DWIDTH 8 0
BBX 8 15 0 -3
BITMAP
00
00
00
00
00
3c
66
60
60
60
66
3c
00
00
00
ENDCHAR
STARTCHAR d
ENCODING 100
SWIDTH 533 0
DWIDTH 8 0
BBX 8 15 0 -3
BITMAP
00
00
00
06
06
3e
66
66
66
66
66
3e
00
00
00
ENDCHAR
STARTCHAR e
ENCODING 101
SWIDTH 533 0
DWIDTH 8 0
BBX 8 15 0 -3
BITMAP
00
00
00
00
00
3c
66
66
7e
60
60
3c
00
00
00
ENDCHAR
STARTCHAR f
ENCODING 102
SWIDTH 533 0
DWIDTH 8 0
BBX 8 15 0 -3
BITMAP
00
00
00
1e
30
30
30
7e
30
30
30
30
00
00
00
ENDCHAR
STARTCHAR g
ENCODING 103
SWIDTH 533 0
DWIDTH 8 0
BBX 8 15 0 -3
BITMAP
00
00
00
00
00
3e
66
66
66
66
66
3e
06
06
7c
ENDCHAR
STARTCHAR h
ENCODING 104
SWIDTH 533 0
DWIDTH 8 0
BBX 8 15 0 -3
BITMAP
00
00
00
60
60
7c
66
66
66
66
66
66
00
00
00
ENDCHAR
STARTCHAR i
ENCODING 105
SWIDTH 533 0
DWIDTH 8 0
BBX 8 15 0 -3
BITMAP
00
00
18
18
00
78
18
18
18
18
18
7e
00
00
00
ENDCHAR
STARTCHAR j
ENCODING 106
SWIDTH 533 0
DWIDTH 8 0
BBX 8 15 0 -3
BITMAP
00
00
0c
0c
00
3c
0c
0c
0c
0c
0c
0c
0c
0c
78
ENDCHAR
STARTCHAR k
ENCODING 107
SWIDTH 533 0
DWIDTH 8 0
BBX 8 15 0 -3
BITMAP
00
00
00
60
60
66
66
6c
78
6c
66
66
00
00
00
ENDCHAR
STARTCHAR l
ENCODING 108
SWIDTH 533 0
DWIDTH 8 0
BBX 8 15 0 -3
BITMAP
00
00
00
78
18
18
18
18
18
18
18
7e
00
00
00
ENDCHAR
STARTCHAR m
ENCODING 109
SWIDTH 533 0
DWIDTH 8 0
BBX 8 15 0 -3
BITMAP
00
00
00
00
00
7e
6b
6b
6b
6b
6b
63
00
00
00
ENDCHAR
STARTCHAR n
ENCODING 110
SWIDTH 533 0
DWIDTH 8 0
BBX 8 15 0 -3
BITMAP
00
00
00
00
00
7c
66
66
66
66
66
66
00
00
00
ENDCHAR
STARTCHAR o
ENCODING 111
SWIDTH 533 0
DWIDTH 8 0
BBX 8 15 0 -3
BITMAP
00
00
00
00
00
3c
66
66
66
66
66
3c
00
00
00
ENDCHAR
STARTCHAR p
ENCODING 112
SWIDTH 533 0
DWIDTH 8 0
BBX 8 15 0 -3
BITMAP
00
00
00
00
00
7c
66
66
66
66
66
7c
60
60
60
ENDCHAR
STARTCHAR q
ENCODING 113
SWIDTH 533 0
DWIDTH 8 0
BBX 8 15 0 -3
BITMAP
00
00
00
00
00
3e
66
66
66
66
66
3e
06
06
06
ENDCHAR
STARTCHAR r
ENCODING 114
SWIDTH 533 0
DWIDTH 8 0
BBX 8 15 0 -3
BITMAP
00
00
00
00
00
66
6e
70
60
60
60
60
00
00
00
ENDCHAR
STARTCHAR s
ENCODING 115
SWIDTH 533 0
DWIDTH 8 0
BBX 8 15 0 -3
BITMAP
00
00
00
00
00
3e
60
60
3c
06
06
7c
00
00
00
ENDCHAR
STARTCHAR t
ENCODING 116
SWIDTH 533 0
DWIDTH 8 0
BBX 8 15 0 -3
BITMAP
00
00
00
30
30
7e
30
30
30
30
30
1e
00
00
00
ENDCHAR
STARTCHAR u
ENCODING 117
SWIDTH 533 0
DWIDTH 8 0
BBX 8 15 0 -3
BITMAP
00
00
00
00
00
66
66
66
66
66
66
3e
00
00
00
ENDCHAR
STARTCHAR v
ENCODING 118
SWIDTH 533 0
DWIDTH 8 0
BBX 8 15 0 -3
BITMAP
00
00
00
00
00
66
66
66
66
66
3c
18
00
00
00
ENDCHAR
STARTCHAR w
ENCODING 119
SWIDTH 533 0
DWIDTH 8 0
BBX 8 15 0 -3
BITMAP
00
00
00
00
00
63
6b
6b
6b
6b
36
36
00
00
00
ENDCHAR
STARTCHAR x
ENCODING 120
SWIDTH 533 0
DWIDTH 8 0
BBX 8 15 0 -3
BITMAP
00
00
00
00
00
66
66
3c
18
3c
66
66
00
00
00
ENDCHAR
STARTCHAR y
ENCODING 121
SWIDTH 533 0
DWIDTH 8 0
BBX 8 15 0 -3
BITMAP
00
00
00
00
00
66
66
66
66
66
66
3c
0c
18
f0
ENDCHAR
STARTCHAR z
ENCODING 122
SWIDTH 533 0
DWIDTH 8 0
BBX 8 15 0 -3
BITMAP
00
00
00
00
00
7e
06
0c
18
30
60
7e
00
00
00
ENDCHAR
STARTCHAR braceleft
ENCODING 123
SWIDTH 533 0
DWIDTH 8 0
BBX 8 15 0 -3
BITMAP
00
00
00
0c
18
18
18
30
60
30
18
18
18
0c
00
ENDCHAR
STARTCHAR bar
ENCODING 124
SWIDTH 533 0
DWIDTH 8 0
BBX 8 15 0 -3
BITMAP
00
00
00
18
18
18
18
18
18
18
18
18
18
18
18
ENDCHAR
STARTCHAR braceright
ENCODING 125
SWIDTH 533 0
DWIDTH 8 0
BBX 8 15 0 -3
BITMAP
00
00
00
30
18
18
18
0c
06
0c
18
18
18
30
00
ENDCHAR
STARTCHAR asciitilde
ENCODING 126
SWIDTH 533 0
DWIDTH 8 0
BBX 8 15 0 -3
BITMAP
00
00
00
71
db
8e
00
00
00
00
00
00
00
00
00
ENDCHAR
STARTCHAR C177
ENCODING -1
SWIDTH 533 0
DWIDTH 8 0
BBX 8 15 0 -3
BITMAP
00
00
00
7e
7e
7e
7e
7e
7e
7e
7e
7e
00
00
00
ENDCHAR
STARTCHAR C200
ENCODING -1
SWIDTH 533 0
DWIDTH 8 0
BBX 8 15 0 -3
BITMAP
00
00
00
7e
7e
7e
7e
7e
7e
7e
7e
7e
00
00
00
ENDCHAR
STARTCHAR C201
ENCODING -1
SWIDTH 533 0
DWIDTH 8 0
BBX 8 15 0 -3
BITMAP
00
00
00
7e
7e
7e
7e
7e
7e
7e
7e
7e
00
00
00
ENDCHAR
STARTCHAR C202
ENCODING -1
SWIDTH 533 0
DWIDTH 8 0
BBX 8 15 0 -3
BITMAP
00
00
00
7e
7e
7e
7e
7e
7e
7e
7e
7e
00
00
00
ENDCHAR
STARTCHAR C203
ENCODING -1
SWIDTH 533 0
DWIDTH 8 0
BBX 8 15 0 -3
BITMAP
00
00
00
7e
7e
7e
7e
7e
7e
7e
7e
7e
00
00
00
ENDCHAR
STARTCHAR C204
ENCODING -1
SWIDTH 533 0
DWIDTH 8 0
BBX 8 15 0 -3
BITMAP
00
00
00
7e
7e
7e
7e
7e
7e
7e
7e
7e
00
00
00
ENDCHAR
STARTCHAR C205
ENCODING -1
SWIDTH 533 0
DWIDTH 8 0
BBX 8 15 0 -3
BITMAP
00
00
00
7e
7e
7e
7e
7e
7e
7e
7e
7e
00
00
00
ENDCHAR
STARTCHAR C206
ENCODING -1
SWIDTH 533 0
DWIDTH 8 0
BBX 8 15 0 -3
BITMAP
00
00
00
7e
7e
7e
7e
7e
7e
7e
7e
7e
00
00
00
ENDCHAR
STARTCHAR C207
ENCODING -1
SWIDTH 533 0
DWIDTH 8 0
BBX 8 15 0 -3
BITMAP
00
00
00
7e
7e
7e
7e
7e
7e
7e
7e
7e
00
00
00
ENDCHAR
STARTCHAR C210
ENCODING -1
SWIDTH 533 0
DWIDTH 8 0
BBX 8 15 0 -3
BITMAP
00
00
00
7e
7e
7e
7e
7e
7e
7e
7e
7e
00
00
00
ENDCHAR
STARTCHAR C211
ENCODING -1
SWIDTH 533 0
DWIDTH 8 0
BBX 8 15 0 -3
BITMAP
00
00
00
7e
7e
7e
7e
7e
7e
7e
7e
7e
00
00
00
ENDCHAR
STARTCHAR C212
ENCODING -1
SWIDTH 533 0
DWIDTH 8 0
BBX 8 15 0 -3
BITMAP
00
00
00
7e
7e
7e
7e
7e
7e
7e
7e
7e
00
00
00
ENDCHAR
STARTCHAR C213
ENCODING -1
SWIDTH 533 0
DWIDTH 8 0
BBX 8 15 0 -3
BITMAP
00
00
00
7e
7e
7e
7e
7e
7e
7e
7e
7e
00
00
00
ENDCHAR
STARTCHAR C214
ENCODING -1
SWIDTH 533 0
DWIDTH 8 0
BBX 8 15 0 -3
BITMAP
00
00
00
7e
7e
7e
7e
7e
7e
7e
7e
7e
00
00
00
ENDCHAR
STARTCHAR C215
ENCODING -1
SWIDTH 533 0
DWIDTH 8 0
BBX 8 15 0 -3
BITMAP
00
00
00
7e
7e
7e
7e
7e
7e
7e
7e
7e
00
00
00
ENDCHAR
STARTCHAR C216
ENCODING -1
SWIDTH 533 0
DWIDTH 8 0
BBX 8 15 0 -3
BITMAP
00
00
00
7e
7e
7e
7e
7e
7e
7e
7e
7e
00
00
00
ENDCHAR
STARTCHAR C217
ENCODING -1
SWIDTH 533 0
DWIDTH 8 0
BBX 8 15 0 -3
BITMAP
00
00
00
7e
7e
7e
7e
7e
7e
7e
7e
7e
00
00
00
ENDCHAR
STARTCHAR C220
ENCODING -1
SWIDTH 533 0
DWIDTH 8 0
BBX 8 15 0 -3
BITMAP
00
00
00
0c
18
1c
1c
00
00
00
00
00
00
00
00
ENDCHAR
STARTCHAR C221
ENCODING -1
SWIDTH 533 0
DWIDTH 8 0
BBX 8 15 0 -3
BITMAP
00
00
00
1c
1c
0c
18
00
00
00
00
00
00
00
00
ENDCHAR
STARTCHAR C222
ENCODING -1
SWIDTH 533 0
DWIDTH 8 0
BBX 8 15 0 -3
BITMAP
00
00
00
7e
7e
7e
7e
7e
7e
7e
7e
7e
00
00
00
ENDCHAR
STARTCHAR C223
ENCODING -1
SWIDTH 533 0
DWIDTH 8 0
BBX 8 15 0 -3
BITMAP
00
00
00
7e
7e
7e
7e
7e
7e
7e
7e
7e
00
00
00
ENDCHAR
STARTCHAR C224
ENCODING -1
SWIDTH 533 0
DWIDTH 8 0
BBX 8 15 0 -3
BITMAP
00
00
00
7e
7e
7e
7e
7e
7e
7e
7e
7e
00
00
00
ENDCHAR
STARTCHAR C225
ENCODING -1
SWIDTH 533 0
DWIDTH 8 0
BBX 8 15 0 -3
BITMAP
00
00
00
7e
7e
7e
7e
7e
7e
7e
7e
7e
00
00
00
ENDCHAR
STARTCHAR C226
ENCODING -1
SWIDTH 533 0
DWIDTH 8 0
BBX 8 15 0 -3
BITMAP
00
00
00
7e
7e
7e
7e
7e
7e
7e
7e
7e
00
00
00
ENDCHAR
STARTCHAR C227
ENCODING -1
SWIDTH 533 0
DWIDTH 8 0
BBX 8 15 0 -3
BITMAP
00
00
00
7e
7e
7e
7e
7e
7e
7e
7e
7e
00
00
00
ENDCHAR
STARTCHAR C230
ENCODING -1
SWIDTH 533 0
DWIDTH 8 0
BBX 8 15 0 -3
BITMAP
00
00
00
7e
7e
7e
7e
7e
7e
7e
7e
7e
00
00
00
ENDCHAR
STARTCHAR C231
ENCODING -1
SWIDTH 533 0
DWIDTH 8 0
BBX 8 15 0 -3
BITMAP
00
00
00
7e
7e
7e
7e
7e
7e
7e
7e
7e
00
00
00
ENDCHAR
STARTCHAR C232
ENCODING -1
SWIDTH 533 0
DWIDTH 8 0
BBX 8 15 0 -3
BITMAP
00
00
00
7e
7e
7e
7e
7e
7e
7e
7e
7e
00
00
00
ENDCHAR
STARTCHAR C233
ENCODING -1
SWIDTH 533 0
DWIDTH 8 0
BBX 8 15 0 -3
BITMAP
00
00
00
7e
7e
7e
7e
7e
7e
7e
7e
7e
00
00
00
ENDCHAR
STARTCHAR C234
ENCODING -1
SWIDTH 533 0
DWIDTH 8 0
BBX 8 15 0 -3
BITMAP
00
00
00
7e
7e
7e
7e
7e
7e
7e
7e
7e
00
00
00
ENDCHAR
STARTCHAR C235
ENCODING -1
SWIDTH 533 0
DWIDTH 8 0
BBX 8 15 0 -3
BITMAP
00
00
00
7e
7e
7e
7e
7e
7e
7e
7e
7e
00
00
00
ENDCHAR
STARTCHAR C236
ENCODING -1
SWIDTH 533 0
DWIDTH 8 0
BBX 8 15 0 -3
BITMAP
00
00
00
7e
7e
7e
7e
7e
7e
7e
7e
7e
00
00
00
ENDCHAR
STARTCHAR C237
ENCODING -1
SWIDTH 533 0
DWIDTH 8 0
BBX 8 15 0 -3
BITMAP
00
00
00
7e
7e
7e
7e
7e
7e
7e
7e
7e
00
00
00
ENDCHAR
STARTCHAR C240
ENCODING 160
SWIDTH 533 0
DWIDTH 8 0
BBX 8 15 0 -3
BITMAP
00
00
00
00
00
00
00
00
00
00
00
00
00
00
00
ENDCHAR
STARTCHAR exclamdown
ENCODING 161
SWIDTH 533 0
DWIDTH 8 0
BBX 8 15 0 -3
BITMAP
00
6c
00
7e
60
60
60
7c
60
60
60
7e
00
00
00
ENDCHAR
STARTCHAR cent
ENCODING 162
SWIDTH 533 0
DWIDTH 8 0
BBX 8 15 0 -3
BITMAP
00
00
00
18
18
3c
66
60
60
66
3c
18
18
00
00
ENDCHAR
STARTCHAR sterling
ENCODING 163
SWIDTH 533 0
DWIDTH 8 0
BBX 8 15 0 -3
BITMAP
00
00
00
3c
66
60
60
fc
60
60
c0
fe
00
00
00
ENDCHAR
STARTCHAR currency
ENCODING 164
SWIDTH 533 0
DWIDTH 8 0
BBX 8 15 0 -3
BITMAP
00
00
00
00
66
3c
66
66
3c
66
00
00
00
00
00
ENDCHAR
STARTCHAR yen
ENCODING 165
SWIDTH 533 0
DWIDTH 8 0
BBX 8 15 0 -3
BITMAP
00
00
00
66
66
66
3c
7e
18
7e
18
18
00
00
00
ENDCHAR
STARTCHAR brokenbar
ENCODING 166
SWIDTH 533 0
DWIDTH 8 0
BBX 8 15 0 -3
BITMAP
00
00
00
18
18
18
18
18
00
00
18
18
18
18
18
ENDCHAR
STARTCHAR section
ENCODING 167
SWIDTH 533 0
DWIDTH 8 0
BBX 8 15 0 -3
BITMAP
00
00
00
3c
66
60
38
3c
66
66
3c
1c
06
66
3c
ENDCHAR
STARTCHAR dieresis
ENCODING 168
SWIDTH 533 0
DWIDTH 8 0
BBX 8 15 0 -3
BITMAP
00
00
66
66
00
00
00
00
00
00
00
00
00
00
00
ENDCHAR
STARTCHAR copyright
ENCODING 169
SWIDTH 533 0
DWIDTH 8 0
BBX 8 15 0 -3
BITMAP
00
00
00
7e
c3
99
a5
a1
a5
99
c3
7e
00
00
00
ENDCHAR
STARTCHAR ordfeminine
ENCODING 170
SWIDTH 533 0
DWIDTH 8 0
BBX 8 15 0 -3
BITMAP
00
00
00
3c
06
3e
66
3e
00
7e
00
00
00
00
00
ENDCHAR
STARTCHAR guillemotleft
ENCODING 171
SWIDTH 533 0
DWIDTH 8 0
BBX 8 15 0 -3
BITMAP
00
00
00
00
00
00
00
33
66
cc
66
33
00
00
00
ENDCHAR
STARTCHAR logicalnot
ENCODING 172
SWIDTH 533 0
DWIDTH 8 0
BBX 8 15 0 -3
BITMAP
00
00
00
00
00
00
00
7e
06
06
00
00
00
00
00
ENDCHAR
STARTCHAR hyphen
ENCODING 173
SWIDTH 533 0
DWIDTH 8 0
BBX 8 15 0 -3
BITMAP
00
00
00
00
00
00
00
7e
00
00
00
00
00
00
00
ENDCHAR
STARTCHAR registered
ENCODING 174
SWIDTH 533 0
DWIDTH 8 0
BBX 8 15 0 -3
BITMAP
00
00
00
7e
c3
b9
a5
a5
b9
a5
c3
7e
00
00
00
ENDCHAR
STARTCHAR macron
ENCODING 175
SWIDTH 533 0
DWIDTH 8 0
BBX 8 15 0 -3
BITMAP
ff
00
00
00
00
00
00
00
00
00
00
00
00
00
00
ENDCHAR
STARTCHAR degree
ENCODING 176
SWIDTH 533 0
DWIDTH 8 0
BBX 8 15 0 -3
BITMAP
00
00
3c
66
66
3c
00
00
00
00
00
00
00
00
00
ENDCHAR
STARTCHAR plusminus
ENCODING 177
SWIDTH 533 0
DWIDTH 8 0
BBX 8 15 0 -3
BITMAP
00
00
00
00
00
18
18
7e
18
18
00
7e
00
00
00
ENDCHAR
STARTCHAR twosuperior
ENCODING 178
SWIDTH 533 0
DWIDTH 8 0
BBX 8 15 0 -3
BITMAP
00
00
00
38
0c
18
30
3c
00
00
00
00
00
00
00
ENDCHAR
STARTCHAR threesuperior
ENCODING 179
SWIDTH 533 0
DWIDTH 8 0
BBX 8 15 0 -3
BITMAP
00
00
00
38
0c
18
0c
38
00
00
00
00
00
00
00
ENDCHAR
STARTCHAR acute
ENCODING 180
SWIDTH 533 0
DWIDTH 8 0
BBX 8 15 0 -3
BITMAP
00
1c
18
30
00
00
00
00
00
00
00
00
00
00
00
ENDCHAR
STARTCHAR mu
ENCODING 181
SWIDTH 533 0
DWIDTH 8 0
BBX 8 15 0 -3
BITMAP
00
00
00
00
00
66
66
66
66
66
66
7b
60
60
c0
ENDCHAR
STARTCHAR paragraph
ENCODING 182
SWIDTH 533 0
DWIDTH 8 0
BBX 8 15 0 -3
BITMAP
00
00
00
1f
3e
7e
7e
7e
3e
1e
06
06
06
06
06
ENDCHAR
STARTCHAR periodcentered
ENCODING 183
SWIDTH 533 0
DWIDTH 8 0
BBX 8 15 0 -3
BITMAP
00
00
00
00
00
00
1c
1c
00
00
00
00
00
00
00
ENDCHAR
STARTCHAR cedilla
ENCODING 184
SWIDTH 533 0
DWIDTH 8 0
BBX 8 15 0 -3
BITMAP
00
00
00
00
00
00
00
00
00
00
00
00
18
0c
38
ENDCHAR
STARTCHAR onesuperior
ENCODING 185
SWIDTH 533 0
DWIDTH 8 0
BBX 8 15 0 -3
BITMAP
00
00
00
18
38
18
18
18
00
00
00
00
00
00
00
ENDCHAR
STARTCHAR ordmasculine
ENCODING 186
SWIDTH 533 0
DWIDTH 8 0
BBX 8 15 0 -3
BITMAP
00
00
00
3c
66
66
66
3c
00
7e
00
00
00
00
00
ENDCHAR
STARTCHAR guillemotright
ENCODING 187
SWIDTH 533 0
DWIDTH 8 0
BBX 8 15 0 -3
BITMAP
00
00
00
00
00
00
00
cc
66
33
66
cc
00
00
00
ENDCHAR
STARTCHAR onequarter
ENCODING 188
SWIDTH 533 0
DWIDTH 8 0
BBX 8 15 0 -3
BITMAP
00
00
60
e0
63
66
6c
18
37
6f
db
1f
03
00
00
ENDCHAR
STARTCHAR onehalf
ENCODING 189
SWIDTH 533 0
DWIDTH 8 0
BBX 8 15 0 -3
BITMAP
00
00
60
e0
63
66
6c
18
3e
63
c6
0c
0f
00
00
ENDCHAR
STARTCHAR threequarters
ENCODING 190
SWIDTH 533 0
DWIDTH 8 0
BBX 8 15 0 -3
BITMAP
00
00
e0
30
63
36
ec
18
37
6f
db
1f
03
00
00
ENDCHAR
STARTCHAR questiondown
ENCODING 191
SWIDTH 533 0
DWIDTH 8 0
BBX 8 15 0 -3
BITMAP
00
00
00
6c
00
3c
66
66
7e
60
60
3c
00
00
00
ENDCHAR
STARTCHAR cyr-A
ENCODING 225
SWIDTH 533 0
DWIDTH 8 0
BBX 8 15 0 -3
BITMAP
00
00
00
3c
66
66
66
66
7e
66
66
66
00
00
00
ENDCHAR
STARTCHAR cyr-Be
ENCODING 226
SWIDTH 533 0
DWIDTH 8 0
BBX 8 15 0 -3
BITMAP
00
00
00
7c
60
60
7c
66
66
66
66
7c
00
00
00
ENDCHAR
STARTCHAR cyr-Ve
ENCODING 247
SWIDTH 533 0
DWIDTH 8 0
BBX 8 15 0 -3
BITMAP
00
00
00
7c
66
66
66
7c
66
66
66
7c
00
00
00
ENDCHAR
STARTCHAR cyr-Ghe
ENCODING 231
SWIDTH 533 0
DWIDTH 8 0
BBX 8 15 0 -3
BITMAP
00
00
00
7e
60
60
60
60
60
60
60
60
00
00
00
ENDCHAR
STARTCHAR cyr-De
ENCODING 228
SWIDTH 533 0
DWIDTH 8 0
BBX 8 15 0 -3
BITMAP
00
00
00
3e
66
66
66
66
66
66
66
ff
c3
00
00
ENDCHAR
STARTCHAR cyr-Ie
ENCODING 229
SWIDTH 533 0
DWIDTH 8 0
BBX 8 15 0 -3
BITMAP
00
00
00
7e
60
60
60
7c
60
60
60
7e
00
00
00
ENDCHAR
STARTCHAR cyr-Zhe
ENCODING 246
SWIDTH 533 0
DWIDTH 8 0
BBX 8 15 0 -3
BITMAP
00
00
00
6b
6b
6b
6b
3e
6b
6b
6b
6b
00
00
00
ENDCHAR
STARTCHAR cyr-Ze
ENCODING 250
SWIDTH 533 0
DWIDTH 8 0
BBX 8 15 0 -3
BITMAP
00
00
00
3c
66
06
06
1c
06
06
66
3c
00
00
00
ENDCHAR
STARTCHAR cyr-I
ENCODING 233
SWIDTH 533 0
DWIDTH 8 0
BBX 8 15 0 -3
BITMAP
00
00
00
63
63
63
63
67
6f
7b
73
63
00
00
00
ENDCHAR
STARTCHAR cyr-I-short
ENCODING 234
SWIDTH 533 0
DWIDTH 8 0
BBX 8 15 0 -3
BITMAP
00
1c
00
63
63
63
63
67
6f
7b
73
63
00
00
00
ENDCHAR
STARTCHAR cyr-Ka
ENCODING 235
SWIDTH 533 0
DWIDTH 8 0
BBX 8 15 0 -3
BITMAP
00
00
00
66
66
6c
6c
78
6c
6c
66
66
00
00
00
ENDCHAR
STARTCHAR cyr-El
ENCODING 236
SWIDTH 533 0
DWIDTH 8 0
BBX 8 15 0 -3
BITMAP
00
00
00
3e
66
66
66
66
66
66
66
c6
00
00
00
ENDCHAR
STARTCHAR cyr-Em
ENCODING 237
SWIDTH 533 0
DWIDTH 8 0
BBX 8 15 0 -3
BITMAP
00
00
00
63
63
77
6b
6b
6b
63
63
63
00
00
00
ENDCHAR
STARTCHAR cyr-En
ENCODING 238
SWIDTH 533 0
DWIDTH 8 0
BBX 8 15 0 -3
BITMAP
00
00
00
66
66
66
66
7e
66
66
66
66
00
00
00
ENDCHAR
STARTCHAR cyr-O
ENCODING 239
SWIDTH 533 0
DWIDTH 8 0
BBX 8 15 0 -3
BITMAP
00
00
00
3c
66
66
66
66
66
66
66
3c
00
00
00
ENDCHAR
STARTCHAR cyr-Pe
ENCODING 240
SWIDTH 533 0
DWIDTH 8 0
BBX 8 15 0 -3
BITMAP
00
00
00
7e
66
66
66
66
66
66
66
66
00
00
00
ENDCHAR
STARTCHAR cyr-Er
ENCODING 242
SWIDTH 533 0
DWIDTH 8 0
BBX 8 15 0 -3
BITMAP
00
00
00
7c
66
66
66
7c
60
60
60
60
00
00
00
ENDCHAR
STARTCHAR cyr-Es
ENCODING 243
SWIDTH 533 0
DWIDTH 8 0
BBX 8 15 0 -3
BITMAP
00
00
00
3c
66
66
60
60
60
66
66
3c
00
00
00
ENDCHAR
STARTCHAR cyr-Te
ENCODING 244
SWIDTH 533 0
DWIDTH 8 0
BBX 8 15 0 -3
BITMAP
00
00
00
7e
18
18
18
18
18
18
18
18
00
00
00
ENDCHAR
STARTCHAR cyr-U
ENCODING 245
SWIDTH 533 0
DWIDTH 8 0
BBX 8 15 0 -3
BITMAP
00
00
00
66
66
66
66
66
3e
06
06
7c
00
00
00
ENDCHAR
STARTCHAR cyr-Ef
ENCODING 230
SWIDTH 533 0
DWIDTH 8 0
BBX 8 15 0 -3
BITMAP
00
00
00
3e
6b
6b
6b
6b
6b
6b
3e
08
00
00
00
ENDCHAR
STARTCHAR cyr-Kha
ENCODING 232
SWIDTH 533 0
DWIDTH 8 0
BBX 8 15 0 -3
BITMAP
00
00
00
66
66
34
18
18
2c
66
66
66
00
00
00
ENDCHAR
STARTCHAR cyr-Tse
ENCODING 227
SWIDTH 533 0
DWIDTH 8 0
BBX 8 15 0 -3
BITMAP
00
00
00
66
66
66
66
66
66
66
66
7f
03
00
00
ENDCHAR
STARTCHAR cyr-Che
ENCODING 254
SWIDTH 533 0
DWIDTH 8 0
BBX 8 15 0 -3
BITMAP
00
00
00
66
66
66
66
66
3e
06
06
06
00
00
00
ENDCHAR
STARTCHAR cyr-Sha
ENCODING 251
SWIDTH 533 0
DWIDTH 8 0
BBX 8 15 0 -3
BITMAP
00
00
00
6b
6b
6b
6b
6b
6b
6b
6b
7f
00
00
00
ENDCHAR
STARTCHAR cyr-Shcha
ENCODING 253
SWIDTH 533 0
DWIDTH 8 0
BBX 8 15 0 -3
BITMAP
00
00
00
6b
6b
6b
6b
6b
6b
6b
6b
7f
03
00
00
ENDCHAR
STARTCHAR cyr-Ier
ENCODING 255
SWIDTH 533 0
DWIDTH 8 0
BBX 8 15 0 -3
BITMAP
00
00
00
70
30
30
3e
33
33
33
33
3e
00
00
00
ENDCHAR
STARTCHAR cyr-Iery
ENCODING 249
SWIDTH 533 0
DWIDTH 8 0
BBX 8 15 0 -3
BITMAP
00
00
00
63
63
63
7b
6d
6d
6d
6d
7b
00
00
00
ENDCHAR
STARTCHAR cyr-Ierik
ENCODING 248
SWIDTH 533 0
DWIDTH 8 0
BBX 8 15 0 -3
BITMAP
00
00
00
60
60
60
7c
66
66
66
66
7c
00
00
00
ENDCHAR
STARTCHAR cyr-E-rev
ENCODING 252
SWIDTH 533 0
DWIDTH 8 0
BBX 8 15 0 -3
BITMAP
00
00
00
7c
06
06
06
3e
06
06
06
7c
00
00
00
ENDCHAR
STARTCHAR cyr-Yu
ENCODING 224
SWIDTH 533 0
DWIDTH 8 0
BBX 8 15 0 -3
BITMAP
00
00
00
6e
5b
5b
5b
7b
5b
5b
5b
6e
00
00
00
ENDCHAR
STARTCHAR cyr-Ya
ENCODING 241
SWIDTH 533 0
DWIDTH 8 0
BBX 8 15 0 -3
BITMAP
00
00
00
3e
66
66
66
66
3e
36
66
66
00
00
00
ENDCHAR
STARTCHAR cyr-a
ENCODING 193
SWIDTH 533 0
DWIDTH 8 0
BBX 8 15 0 -3
BITMAP
00
00
00
00
00
3c
06
06
3e
66
66
3e
00
00
00
ENDCHAR
STARTCHAR cyr-be
ENCODING 194
SWIDTH 533 0
DWIDTH 8 0
BBX 8 15 0 -3
BITMAP
00
00
00
3e
60
7c
66
66
66
66
66
3c
00
00
00
ENDCHAR
STARTCHAR cyr-ve
ENCODING 215
SWIDTH 533 0
DWIDTH 8 0
BBX 8 15 0 -3
BITMAP
00
00
00
00
00
7c
66
66
7c
66
66
7c
00
00
00
ENDCHAR
STARTCHAR cyr-ghe
ENCODING 199
SWIDTH 533 0
DWIDTH 8 0
BBX 8 15 0 -3
BITMAP
00
00
00
00
00
7e
60
60
60
60
60
60
00
00
00
ENDCHAR
STARTCHAR cyr-de
ENCODING 196
SWIDTH 533 0
DWIDTH 8 0
BBX 8 15 0 -3
BITMAP
00
00
00
00
00
3e
66
66
66
66
66
ff
c3
00
00
ENDCHAR
STARTCHAR cyr-ie
ENCODING 197
SWIDTH 533 0
DWIDTH 8 0
BBX 8 15 0 -3
BITMAP
00
00
00
00
00
3c
66
66
7e
60
60
3c
00
00
00
ENDCHAR
STARTCHAR cyr-zhe
ENCODING 214
SWIDTH 533 0
DWIDTH 8 0
BBX 8 15 0 -3
BITMAP
00
00
00
00
00
6b
6b
6b
3e
6b
6b
6b
00
00
00
ENDCHAR
STARTCHAR cyr-z
ENCODING 218
SWIDTH 533 0
DWIDTH 8 0
BBX 8 15 0 -3
BITMAP
00
00
00
00
00
3c
66
06
1c
06
66
3c
00
00
00
ENDCHAR
STARTCHAR cyr-i
ENCODING 201
SWIDTH 533 0
DWIDTH 8 0
BBX 8 15 0 -3
BITMAP
00
00
00
00
00
63
63
67
6f
7b
73
63
00
00
00
ENDCHAR
STARTCHAR cyr-i-short
ENCODING 202
SWIDTH 533 0
DWIDTH 8 0
BBX 8 15 0 -3
BITMAP
00
00
00
1c
00
63
63
67
6f
7b
73
63
00
00
00
ENDCHAR
STARTCHAR cyr-ka
ENCODING 203
SWIDTH 533 0
DWIDTH 8 0
BBX 8 15 0 -3
BITMAP
00
00
00
00
00
66
66
6c
78
6c
66
66
00
00
00
ENDCHAR
STARTCHAR cyr-el
ENCODING 204
SWIDTH 533 0
DWIDTH 8 0
BBX 8 15 0 -3
BITMAP
00
00
00
00
00
1f
33
33
33
33
33
63
00
00
00
ENDCHAR
STARTCHAR cyr-em
ENCODING 205
SWIDTH 533 0
DWIDTH 8 0
BBX 8 15 0 -3
BITMAP
00
00
00
00
00
63
77
7f
6b
6b
63
63
00
00
00
ENDCHAR
STARTCHAR cyr-en
ENCODING 206
SWIDTH 533 0
DWIDTH 8 0
BBX 8 15 0 -3
BITMAP
00
00
00
00
00
66
66
66
7e
66
66
66
00
00
00
ENDCHAR
STARTCHAR cyr-o
ENCODING 207
SWIDTH 533 0
DWIDTH 8 0
BBX 8 15 0 -3
BITMAP
00
00
00
00
00
3c
66
66
66
66
66
3c
00
00
00
ENDCHAR
STARTCHAR cyr-pe
ENCODING 208
SWIDTH 533 0
DWIDTH 8 0
BBX 8 15 0 -3
BITMAP
00
00
00
00
00
7e
66
66
66
66
66
66
00
00
00
ENDCHAR
STARTCHAR cyr-er
ENCODING 210
SWIDTH 533 0
DWIDTH 8 0
BBX 8 15 0 -3
BITMAP
00
00
00
00
00
7c
66
66
66
66
66
7c
60
60
60
ENDCHAR
STARTCHAR cyr-es
ENCODING 211
SWIDTH 533 0
DWIDTH 8 0
BBX 8 15 0 -3
BITMAP
00
00
00
00
00
3c
66
60
60
60
66
3c
00
00
00
ENDCHAR
STARTCHAR cyr-te
ENCODING 212
SWIDTH 533 0
DWIDTH 8 0
BBX 8 15 0 -3
BITMAP
00
00
00
00
00
7e
18
18
18
18
18
18
00
00
00
ENDCHAR
STARTCHAR cyr-u
ENCODING 213
SWIDTH 533 0
DWIDTH 8 0
BBX 8 15 0 -3
BITMAP
00
00
00
00
00
66
66
66
66
66
66
3e
06
0c
78
ENDCHAR
STARTCHAR cyr-ef
ENCODING 198
SWIDTH 533 0
DWIDTH 8 0
BBX 8 15 0 -3
BITMAP
00
00
00
00
08
3e
6b
6b
6b
6b
6b
3e
08
08
08
ENDCHAR
STARTCHAR cyr-kha
ENCODING 200
SWIDTH 533 0
DWIDTH 8 0
BBX 8 15 0 -3
BITMAP
00
00
00
00
00
66
66
3c
18
3c
66
66
00
00
00
ENDCHAR
STARTCHAR cyr-tse
ENCODING 195
SWIDTH 533 0
DWIDTH 8 0
BBX 8 15 0 -3
BITMAP
00
00
00
00
00
66
66
66
66
66
66
7f
03
00
00
ENDCHAR
STARTCHAR cyr-che
ENCODING 222
SWIDTH 533 0
DWIDTH 8 0
BBX 8 15 0 -3
BITMAP
00
00
00
00
00
66
66
66
66
3e
06
06
00
00
00
ENDCHAR
STARTCHAR cyr-sha
ENCODING 219
SWIDTH 533 0
DWIDTH 8 0
BBX 8 15 0 -3
BITMAP
00
00
00
00
00
6b
6b
6b
6b
6b
6b
7f
00
00
00
ENDCHAR
STARTCHAR cyr-shcha
ENCODING 221
SWIDTH 533 0
DWIDTH 8 0
BBX 8 15 0 -3
BITMAP
00
00
00
00
00
6b
6b
6b
6b
6b
6b
7f
03
00
00
ENDCHAR
STARTCHAR cyr-ier
ENCODING 223
SWIDTH 533 0
DWIDTH 8 0
BBX 8 15 0 -3
BITMAP
00
00
00
00
00
70
30
3e
33
33
33
3e
00
00
00
ENDCHAR
STARTCHAR cyr-iery
ENCODING 217
SWIDTH 533 0
DWIDTH 8 0
BBX 8 15 0 -3
BITMAP
00
00
00
00
00
63
63
7b
6d
6d
6d
7b
00
00
00
ENDCHAR
STARTCHAR cyr-ierik
ENCODING 216
SWIDTH 533 0
DWIDTH 8 0
BBX 8 15 0 -3
BITMAP
00
00
00
00
00
60
60
7c
66
66
66
7c
00
00
00
ENDCHAR
STARTCHAR cyr-e-rev
ENCODING 220
SWIDTH 533 0
DWIDTH 8 0
BBX 8 15 0 -3
BITMAP
00
00
00
00
00
7c
06
06
3e
06
06
7c
00
00
00
ENDCHAR
STARTCHAR cyr-yu
ENCODING 192
SWIDTH 533 0
DWIDTH 8 0
BBX 8 15 0 -3
BITMAP
00
00
00
00
00
6e
5b
5b
7b
5b
5b
6e
00
00
00
ENDCHAR
STARTCHAR cyr-ya
ENCODING 209
SWIDTH 533 0
DWIDTH 8 0
BBX 8 15 0 -3
BITMAP
00
00
00
00
00
3e
66
66
66
3e
36
66
00
00
00
ENDCHAR
ENDFONT
